G75*
G70*
%OFA0B0*%
%FSLAX24Y24*%
%IPPOS*%
%LPD*%
%AMOC8*
5,1,8,0,0,1.08239X$1,22.5*
%
%ADD10C,0.0000*%
D10*
X004350Y000605D02*
X010450Y000605D01*
X010509Y000607D01*
X010567Y000613D01*
X010626Y000622D01*
X010683Y000636D01*
X010739Y000653D01*
X010794Y000674D01*
X010848Y000698D01*
X010900Y000726D01*
X010950Y000757D01*
X010998Y000791D01*
X011043Y000828D01*
X011086Y000869D01*
X011127Y000912D01*
X011164Y000957D01*
X011198Y001005D01*
X011229Y001055D01*
X011257Y001107D01*
X011281Y001161D01*
X011302Y001216D01*
X011319Y001272D01*
X011333Y001329D01*
X011342Y001388D01*
X011348Y001446D01*
X011350Y001505D01*
X011350Y007905D01*
X011355Y007960D01*
X011356Y008015D01*
X011353Y008070D01*
X011347Y008125D01*
X011337Y008179D01*
X011323Y008232D01*
X011306Y008284D01*
X011285Y008335D01*
X011261Y008385D01*
X011233Y008432D01*
X011203Y008478D01*
X011169Y008521D01*
X011132Y008562D01*
X011093Y008601D01*
X011051Y008636D01*
X011007Y008669D01*
X010960Y008699D01*
X010912Y008725D01*
X010862Y008748D01*
X010811Y008768D01*
X010758Y008784D01*
X010704Y008796D01*
X010650Y008805D01*
X004350Y008805D01*
X000250Y004705D02*
X000255Y004504D01*
X000270Y004303D01*
X000294Y004103D01*
X000329Y003905D01*
X000373Y003709D01*
X000427Y003515D01*
X000490Y003324D01*
X000562Y003136D01*
X000644Y002952D01*
X000734Y002772D01*
X000833Y002597D01*
X000941Y002427D01*
X001057Y002263D01*
X001181Y002104D01*
X001312Y001952D01*
X001451Y001806D01*
X001597Y001667D01*
X001749Y001536D01*
X001908Y001412D01*
X002072Y001296D01*
X002242Y001188D01*
X002417Y001089D01*
X002597Y000999D01*
X002781Y000917D01*
X002969Y000845D01*
X003160Y000782D01*
X003354Y000728D01*
X003550Y000684D01*
X003748Y000649D01*
X003948Y000625D01*
X004149Y000610D01*
X004350Y000605D01*
X000250Y004705D02*
X000255Y004906D01*
X000270Y005107D01*
X000294Y005307D01*
X000329Y005505D01*
X000373Y005701D01*
X000427Y005895D01*
X000490Y006086D01*
X000562Y006274D01*
X000644Y006458D01*
X000734Y006638D01*
X000833Y006813D01*
X000941Y006983D01*
X001057Y007147D01*
X001181Y007306D01*
X001312Y007458D01*
X001451Y007604D01*
X001597Y007743D01*
X001749Y007874D01*
X001908Y007998D01*
X002072Y008114D01*
X002242Y008222D01*
X002417Y008321D01*
X002597Y008411D01*
X002781Y008493D01*
X002969Y008565D01*
X003160Y008628D01*
X003354Y008682D01*
X003550Y008726D01*
X003748Y008761D01*
X003948Y008785D01*
X004149Y008800D01*
X004350Y008805D01*
M02*
