G75*
G70*
%OFA0B0*%
%FSLAX24Y24*%
%IPPOS*%
%LPD*%
%AMOC8*
5,1,8,0,0,1.08239X$1,22.5*
%
%ADD10OC8,0.0540*%
%ADD11C,0.0740*%
%ADD12C,0.1181*%
%ADD13R,0.0740X0.0740*%
%ADD14C,0.0100*%
%ADD15C,0.0376*%
%ADD16C,0.0240*%
D10*
X002050Y001905D03*
X003850Y001905D03*
X005650Y001905D03*
X005650Y006905D03*
X003850Y006905D03*
X002050Y006905D03*
D11*
X002850Y007805D03*
X003850Y007805D03*
X004850Y007805D03*
X005850Y007805D03*
X007350Y005205D03*
X007350Y004205D03*
X007350Y003205D03*
D12*
X010250Y003705D03*
X010250Y001705D03*
X010250Y005705D03*
X010250Y007705D03*
D13*
X007350Y006205D03*
D14*
X002207Y001525D02*
X002096Y001525D01*
X002113Y001510D01*
X002702Y001170D01*
X003341Y000938D01*
X004010Y000820D01*
X004350Y000805D01*
X010450Y000805D01*
X010560Y000814D01*
X010768Y000881D01*
X010945Y001010D01*
X011074Y001187D01*
X011141Y001395D01*
X011150Y001505D01*
X011150Y007836D01*
X011141Y007848D01*
X011150Y007917D01*
X011150Y007988D01*
X011154Y007992D01*
X011156Y008025D01*
X011120Y008211D01*
X011029Y008377D01*
X010890Y008507D01*
X010718Y008587D01*
X010633Y008605D01*
X004350Y008605D01*
X004010Y008590D01*
X003341Y008472D01*
X002827Y008285D01*
X002945Y008285D01*
X003122Y008212D01*
X003257Y008077D01*
X003330Y007900D01*
X003330Y007710D01*
X003257Y007533D01*
X003122Y007398D01*
X002945Y007325D01*
X002755Y007325D01*
X002578Y007398D01*
X002443Y007533D01*
X002370Y007710D01*
X002370Y007900D01*
X002443Y008077D01*
X002475Y008108D01*
X002113Y007900D01*
X001592Y007463D01*
X001155Y006942D01*
X000815Y006353D01*
X000583Y005714D01*
X000465Y005045D01*
X000450Y004705D01*
X000450Y004705D01*
X000465Y004365D01*
X000583Y003696D01*
X000815Y003057D01*
X001155Y002468D01*
X001592Y001947D01*
X001670Y001882D01*
X001670Y001960D01*
X001345Y002285D01*
X001210Y002420D01*
X001210Y003850D01*
X001345Y003985D01*
X001785Y003985D01*
X001932Y004132D01*
X001932Y004164D01*
X001977Y004274D01*
X002061Y004358D01*
X002171Y004403D01*
X002289Y004403D01*
X002399Y004358D01*
X002483Y004274D01*
X002528Y004164D01*
X002528Y004046D01*
X002483Y003936D01*
X002399Y003852D01*
X002289Y003807D01*
X002257Y003807D01*
X002110Y003660D01*
X002110Y003660D01*
X001975Y003525D01*
X001670Y003525D01*
X001670Y002610D01*
X001995Y002285D01*
X002207Y002285D01*
X002430Y002062D01*
X002430Y001748D01*
X002207Y001525D01*
X002146Y001492D02*
X009580Y001492D01*
X009549Y001566D02*
X009656Y001308D01*
X009853Y001111D01*
X010111Y001004D01*
X010389Y001004D01*
X010647Y001111D01*
X010844Y001308D01*
X010951Y001566D01*
X010951Y001844D01*
X010844Y002102D01*
X010647Y002299D01*
X010389Y002406D01*
X010111Y002406D01*
X009853Y002299D01*
X009656Y002102D01*
X009549Y001844D01*
X009549Y001566D01*
X009549Y001590D02*
X005872Y001590D01*
X005807Y001525D02*
X006030Y001748D01*
X006030Y002062D01*
X005807Y002285D01*
X005595Y002285D01*
X004895Y002985D01*
X002352Y002985D01*
X002329Y003008D01*
X002219Y003053D01*
X002101Y003053D01*
X001991Y003008D01*
X001907Y002924D01*
X001862Y002814D01*
X001862Y002696D01*
X001907Y002586D01*
X001991Y002502D01*
X002101Y002457D01*
X002219Y002457D01*
X002329Y002502D01*
X002352Y002525D01*
X004705Y002525D01*
X005270Y001960D01*
X005270Y001748D01*
X005493Y001525D01*
X005807Y001525D01*
X005971Y001689D02*
X009549Y001689D01*
X009549Y001787D02*
X006030Y001787D01*
X006030Y001886D02*
X009566Y001886D01*
X009607Y001984D02*
X006030Y001984D01*
X006010Y002083D02*
X009648Y002083D01*
X009735Y002181D02*
X005911Y002181D01*
X005813Y002280D02*
X009834Y002280D01*
X010044Y002378D02*
X005502Y002378D01*
X005404Y002477D02*
X011150Y002477D01*
X011150Y002575D02*
X005305Y002575D01*
X005207Y002674D02*
X011150Y002674D01*
X011150Y002772D02*
X007559Y002772D01*
X007622Y002798D02*
X007445Y002725D01*
X007255Y002725D01*
X007078Y002798D01*
X006943Y002933D01*
X006870Y003110D01*
X006870Y003300D01*
X006943Y003477D01*
X007078Y003612D01*
X007255Y003685D01*
X007445Y003685D01*
X007622Y003612D01*
X007757Y003477D01*
X007830Y003300D01*
X007830Y003110D01*
X007757Y002933D01*
X007622Y002798D01*
X007694Y002871D02*
X011150Y002871D01*
X011150Y002969D02*
X007772Y002969D01*
X007813Y003068D02*
X009958Y003068D01*
X009853Y003111D02*
X010111Y003004D01*
X010389Y003004D01*
X010647Y003111D01*
X010844Y003308D01*
X010951Y003566D01*
X010951Y003844D01*
X010844Y004102D01*
X010647Y004299D01*
X010389Y004406D01*
X010111Y004406D01*
X009853Y004299D01*
X009656Y004102D01*
X009549Y003844D01*
X009549Y003566D01*
X009656Y003308D01*
X009853Y003111D01*
X009798Y003166D02*
X007830Y003166D01*
X007830Y003265D02*
X009700Y003265D01*
X009633Y003363D02*
X007804Y003363D01*
X007763Y003462D02*
X009593Y003462D01*
X009552Y003560D02*
X007674Y003560D01*
X007509Y003659D02*
X009549Y003659D01*
X009549Y003757D02*
X007523Y003757D01*
X007445Y003725D02*
X007622Y003798D01*
X007757Y003933D01*
X007830Y004110D01*
X007830Y004300D01*
X007757Y004477D01*
X007622Y004612D01*
X007445Y004685D01*
X007255Y004685D01*
X007078Y004612D01*
X006943Y004477D01*
X006870Y004300D01*
X006870Y004110D01*
X006943Y003933D01*
X007078Y003798D01*
X007255Y003725D01*
X007445Y003725D01*
X007191Y003659D02*
X002109Y003659D01*
X002207Y003757D02*
X007177Y003757D01*
X007021Y003856D02*
X002402Y003856D01*
X002490Y003954D02*
X006934Y003954D01*
X006894Y004053D02*
X002528Y004053D01*
X002528Y004151D02*
X006870Y004151D01*
X006870Y004250D02*
X002493Y004250D01*
X002409Y004348D02*
X006890Y004348D01*
X006930Y004447D02*
X000461Y004447D01*
X000457Y004545D02*
X007011Y004545D01*
X007154Y004644D02*
X000453Y004644D01*
X000452Y004742D02*
X007113Y004742D01*
X007077Y004760D02*
X007150Y004723D01*
X007228Y004698D01*
X007300Y004686D01*
X007300Y005155D01*
X007400Y005155D01*
X007400Y005255D01*
X007869Y005255D01*
X007857Y005327D01*
X007832Y005405D01*
X007795Y005478D01*
X007747Y005544D01*
X007689Y005602D01*
X007623Y005650D01*
X007550Y005687D01*
X007472Y005712D01*
X007400Y005724D01*
X007400Y005255D01*
X007300Y005255D01*
X007300Y005724D01*
X007228Y005712D01*
X007150Y005687D01*
X007077Y005650D01*
X007011Y005602D01*
X006953Y005544D01*
X006905Y005478D01*
X006868Y005405D01*
X006843Y005327D01*
X006831Y005255D01*
X007300Y005255D01*
X007300Y005155D01*
X006831Y005155D01*
X006843Y005083D01*
X006868Y005005D01*
X006905Y004932D01*
X006953Y004866D01*
X007011Y004808D01*
X007077Y004760D01*
X006979Y004841D02*
X000456Y004841D01*
X000460Y004939D02*
X006902Y004939D01*
X006858Y005038D02*
X000465Y005038D01*
X000481Y005136D02*
X006834Y005136D01*
X006845Y005333D02*
X000516Y005333D01*
X000533Y005432D02*
X006882Y005432D01*
X006943Y005530D02*
X000550Y005530D01*
X000568Y005629D02*
X007048Y005629D01*
X006934Y005725D02*
X007766Y005725D01*
X007830Y005789D01*
X007830Y006621D01*
X007766Y006685D01*
X006934Y006685D01*
X006870Y006621D01*
X006870Y005789D01*
X006934Y005725D01*
X006932Y005727D02*
X000587Y005727D01*
X000623Y005826D02*
X006870Y005826D01*
X006870Y005924D02*
X000659Y005924D01*
X000695Y006023D02*
X006870Y006023D01*
X006870Y006121D02*
X000731Y006121D01*
X000767Y006220D02*
X006870Y006220D01*
X006870Y006318D02*
X000803Y006318D01*
X000852Y006417D02*
X006870Y006417D01*
X006870Y006515D02*
X000909Y006515D01*
X000966Y006614D02*
X001804Y006614D01*
X001893Y006525D02*
X001670Y006748D01*
X001670Y007062D01*
X001893Y007285D01*
X002207Y007285D01*
X002430Y007062D01*
X002430Y006748D01*
X002207Y006525D01*
X001893Y006525D01*
X001706Y006712D02*
X001023Y006712D01*
X001079Y006811D02*
X001670Y006811D01*
X001670Y006909D02*
X001136Y006909D01*
X001210Y007008D02*
X001670Y007008D01*
X001714Y007106D02*
X001293Y007106D01*
X001376Y007205D02*
X001812Y007205D01*
X001541Y007402D02*
X002575Y007402D01*
X002476Y007500D02*
X001637Y007500D01*
X001754Y007599D02*
X002416Y007599D01*
X002375Y007697D02*
X001872Y007697D01*
X001989Y007796D02*
X002370Y007796D01*
X002370Y007894D02*
X002106Y007894D01*
X002274Y007993D02*
X002408Y007993D01*
X002444Y008091D02*
X002457Y008091D01*
X002835Y008288D02*
X009842Y008288D01*
X009853Y008299D02*
X009656Y008102D01*
X009549Y007844D01*
X009549Y007566D01*
X009656Y007308D01*
X009853Y007111D01*
X010111Y007004D01*
X010389Y007004D01*
X010647Y007111D01*
X010844Y007308D01*
X010951Y007566D01*
X010951Y007844D01*
X010844Y008102D01*
X010647Y008299D01*
X010389Y008406D01*
X010111Y008406D01*
X009853Y008299D01*
X009744Y008190D02*
X006144Y008190D01*
X006122Y008212D02*
X006257Y008077D01*
X006330Y007900D01*
X006330Y007710D01*
X006257Y007533D01*
X006122Y007398D01*
X005945Y007325D01*
X005755Y007325D01*
X005578Y007398D01*
X005443Y007533D01*
X005370Y007710D01*
X005370Y007900D01*
X005443Y008077D01*
X005578Y008212D01*
X005755Y008285D01*
X005945Y008285D01*
X006122Y008212D01*
X006243Y008091D02*
X009652Y008091D01*
X009611Y007993D02*
X006292Y007993D01*
X006330Y007894D02*
X009570Y007894D01*
X009549Y007796D02*
X006330Y007796D01*
X006325Y007697D02*
X009549Y007697D01*
X009549Y007599D02*
X006284Y007599D01*
X006224Y007500D02*
X009577Y007500D01*
X009617Y007402D02*
X006125Y007402D01*
X005888Y007205D02*
X009760Y007205D01*
X009661Y007303D02*
X001458Y007303D01*
X002288Y007205D02*
X003612Y007205D01*
X003693Y007285D02*
X003470Y007062D01*
X003470Y006748D01*
X003693Y006525D01*
X004007Y006525D01*
X004230Y006748D01*
X004230Y007062D01*
X004007Y007285D01*
X003693Y007285D01*
X003755Y007325D02*
X003578Y007398D01*
X003443Y007533D01*
X003370Y007710D01*
X003370Y007900D01*
X003443Y008077D01*
X003578Y008212D01*
X003755Y008285D01*
X003945Y008285D01*
X004122Y008212D01*
X004257Y008077D01*
X004330Y007900D01*
X004330Y007710D01*
X004257Y007533D01*
X004122Y007398D01*
X003945Y007325D01*
X003755Y007325D01*
X003575Y007402D02*
X003125Y007402D01*
X003224Y007500D02*
X003476Y007500D01*
X003416Y007599D02*
X003284Y007599D01*
X003325Y007697D02*
X003375Y007697D01*
X003370Y007796D02*
X003330Y007796D01*
X003330Y007894D02*
X003370Y007894D01*
X003408Y007993D02*
X003292Y007993D01*
X003243Y008091D02*
X003457Y008091D01*
X003556Y008190D02*
X003144Y008190D01*
X003105Y008387D02*
X010065Y008387D01*
X010435Y008387D02*
X011019Y008387D01*
X011078Y008288D02*
X010658Y008288D01*
X010756Y008190D02*
X011124Y008190D01*
X011143Y008091D02*
X010848Y008091D01*
X010889Y007993D02*
X011154Y007993D01*
X011147Y007894D02*
X010930Y007894D01*
X010951Y007796D02*
X011150Y007796D01*
X011150Y007697D02*
X010951Y007697D01*
X010951Y007599D02*
X011150Y007599D01*
X011150Y007500D02*
X010923Y007500D01*
X010883Y007402D02*
X011150Y007402D01*
X011150Y007303D02*
X010839Y007303D01*
X010740Y007205D02*
X011150Y007205D01*
X011150Y007106D02*
X010635Y007106D01*
X010397Y007008D02*
X011150Y007008D01*
X011150Y006909D02*
X006030Y006909D01*
X006030Y006811D02*
X011150Y006811D01*
X011150Y006712D02*
X005994Y006712D01*
X006030Y006748D02*
X005807Y006525D01*
X005493Y006525D01*
X005270Y006748D01*
X005270Y007062D01*
X005493Y007285D01*
X005807Y007285D01*
X006030Y007062D01*
X006030Y006748D01*
X005896Y006614D02*
X006870Y006614D01*
X006030Y007008D02*
X010103Y007008D01*
X009865Y007106D02*
X005986Y007106D01*
X005575Y007402D02*
X005125Y007402D01*
X005122Y007398D02*
X005257Y007533D01*
X005330Y007710D01*
X005330Y007900D01*
X005257Y008077D01*
X005122Y008212D01*
X004945Y008285D01*
X004755Y008285D01*
X004578Y008212D01*
X004443Y008077D01*
X004370Y007900D01*
X004370Y007710D01*
X004443Y007533D01*
X004578Y007398D01*
X004755Y007325D01*
X004945Y007325D01*
X005122Y007398D01*
X005224Y007500D02*
X005476Y007500D01*
X005416Y007599D02*
X005284Y007599D01*
X005325Y007697D02*
X005375Y007697D01*
X005370Y007796D02*
X005330Y007796D01*
X005330Y007894D02*
X005370Y007894D01*
X005408Y007993D02*
X005292Y007993D01*
X005243Y008091D02*
X005457Y008091D01*
X005556Y008190D02*
X005144Y008190D01*
X004556Y008190D02*
X004144Y008190D01*
X004243Y008091D02*
X004457Y008091D01*
X004408Y007993D02*
X004292Y007993D01*
X004330Y007894D02*
X004370Y007894D01*
X004370Y007796D02*
X004330Y007796D01*
X004325Y007697D02*
X004375Y007697D01*
X004416Y007599D02*
X004284Y007599D01*
X004224Y007500D02*
X004476Y007500D01*
X004575Y007402D02*
X004125Y007402D01*
X004088Y007205D02*
X005412Y007205D01*
X005314Y007106D02*
X004186Y007106D01*
X004230Y007008D02*
X005270Y007008D01*
X005270Y006909D02*
X004230Y006909D01*
X004230Y006811D02*
X005270Y006811D01*
X005306Y006712D02*
X004194Y006712D01*
X004096Y006614D02*
X005404Y006614D01*
X003604Y006614D02*
X002296Y006614D01*
X002394Y006712D02*
X003506Y006712D01*
X003470Y006811D02*
X002430Y006811D01*
X002430Y006909D02*
X003470Y006909D01*
X003470Y007008D02*
X002430Y007008D01*
X002386Y007106D02*
X003514Y007106D01*
X003414Y008485D02*
X010913Y008485D01*
X010727Y008584D02*
X003972Y008584D01*
X007300Y005629D02*
X007400Y005629D01*
X007400Y005530D02*
X007300Y005530D01*
X007300Y005432D02*
X007400Y005432D01*
X007400Y005333D02*
X007300Y005333D01*
X007300Y005235D02*
X000498Y005235D01*
X000468Y004348D02*
X002051Y004348D01*
X001967Y004250D02*
X000485Y004250D01*
X000503Y004151D02*
X001932Y004151D01*
X001852Y004053D02*
X000520Y004053D01*
X000537Y003954D02*
X001314Y003954D01*
X001215Y003856D02*
X000555Y003856D01*
X000572Y003757D02*
X001210Y003757D01*
X001210Y003659D02*
X000596Y003659D01*
X000632Y003560D02*
X001210Y003560D01*
X001210Y003462D02*
X000668Y003462D01*
X000704Y003363D02*
X001210Y003363D01*
X001210Y003265D02*
X000740Y003265D01*
X000776Y003166D02*
X001210Y003166D01*
X001210Y003068D02*
X000811Y003068D01*
X000866Y002969D02*
X001210Y002969D01*
X001210Y002871D02*
X000923Y002871D01*
X000980Y002772D02*
X001210Y002772D01*
X001210Y002674D02*
X001037Y002674D01*
X001094Y002575D02*
X001210Y002575D01*
X001210Y002477D02*
X001150Y002477D01*
X001231Y002378D02*
X001252Y002378D01*
X001314Y002280D02*
X001350Y002280D01*
X001396Y002181D02*
X001449Y002181D01*
X001479Y002083D02*
X001547Y002083D01*
X001561Y001984D02*
X001646Y001984D01*
X001666Y001886D02*
X001670Y001886D01*
X001902Y002378D02*
X004852Y002378D01*
X004950Y002280D02*
X004013Y002280D01*
X004007Y002285D02*
X003693Y002285D01*
X003470Y002062D01*
X003470Y001748D01*
X003693Y001525D01*
X004007Y001525D01*
X004230Y001748D01*
X004230Y002062D01*
X004007Y002285D01*
X004111Y002181D02*
X005049Y002181D01*
X005147Y002083D02*
X004210Y002083D01*
X004230Y001984D02*
X005246Y001984D01*
X005270Y001886D02*
X004230Y001886D01*
X004230Y001787D02*
X005270Y001787D01*
X005329Y001689D02*
X004171Y001689D01*
X004072Y001590D02*
X005428Y001590D01*
X004753Y002477D02*
X002267Y002477D01*
X002053Y002477D02*
X001804Y002477D01*
X001705Y002575D02*
X001918Y002575D01*
X001871Y002674D02*
X001670Y002674D01*
X001670Y002772D02*
X001862Y002772D01*
X001885Y002871D02*
X001670Y002871D01*
X001670Y002969D02*
X001952Y002969D01*
X001670Y003068D02*
X006887Y003068D01*
X006870Y003166D02*
X001670Y003166D01*
X001670Y003265D02*
X006870Y003265D01*
X006896Y003363D02*
X001670Y003363D01*
X001670Y003462D02*
X006937Y003462D01*
X007026Y003560D02*
X002010Y003560D01*
X002213Y002280D02*
X003687Y002280D01*
X003589Y002181D02*
X002311Y002181D01*
X002410Y002083D02*
X003490Y002083D01*
X003470Y001984D02*
X002430Y001984D01*
X002430Y001886D02*
X003470Y001886D01*
X003470Y001787D02*
X002430Y001787D01*
X002371Y001689D02*
X003529Y001689D01*
X003628Y001590D02*
X002272Y001590D01*
X002316Y001393D02*
X009621Y001393D01*
X009670Y001295D02*
X002487Y001295D01*
X002657Y001196D02*
X009768Y001196D01*
X009886Y001098D02*
X002902Y001098D01*
X003173Y000999D02*
X010930Y000999D01*
X011009Y001098D02*
X010614Y001098D01*
X010732Y001196D02*
X011077Y001196D01*
X011109Y001295D02*
X010830Y001295D01*
X010879Y001393D02*
X011141Y001393D01*
X011149Y001492D02*
X010920Y001492D01*
X010951Y001590D02*
X011150Y001590D01*
X011150Y001689D02*
X010951Y001689D01*
X010951Y001787D02*
X011150Y001787D01*
X011150Y001886D02*
X010934Y001886D01*
X010893Y001984D02*
X011150Y001984D01*
X011150Y002083D02*
X010852Y002083D01*
X010765Y002181D02*
X011150Y002181D01*
X011150Y002280D02*
X010666Y002280D01*
X010456Y002378D02*
X011150Y002378D01*
X011150Y003068D02*
X010542Y003068D01*
X010702Y003166D02*
X011150Y003166D01*
X011150Y003265D02*
X010800Y003265D01*
X010867Y003363D02*
X011150Y003363D01*
X011150Y003462D02*
X010907Y003462D01*
X010948Y003560D02*
X011150Y003560D01*
X011150Y003659D02*
X010951Y003659D01*
X010951Y003757D02*
X011150Y003757D01*
X011150Y003856D02*
X010946Y003856D01*
X010905Y003954D02*
X011150Y003954D01*
X011150Y004053D02*
X010864Y004053D01*
X010795Y004151D02*
X011150Y004151D01*
X011150Y004250D02*
X010696Y004250D01*
X010528Y004348D02*
X011150Y004348D01*
X011150Y004447D02*
X007770Y004447D01*
X007810Y004348D02*
X009972Y004348D01*
X009804Y004250D02*
X007830Y004250D01*
X007830Y004151D02*
X009705Y004151D01*
X009636Y004053D02*
X007806Y004053D01*
X007766Y003954D02*
X009595Y003954D01*
X009554Y003856D02*
X007679Y003856D01*
X007689Y004545D02*
X011150Y004545D01*
X011150Y004644D02*
X007546Y004644D01*
X007550Y004723D02*
X007623Y004760D01*
X007689Y004808D01*
X007747Y004866D01*
X007795Y004932D01*
X007832Y005005D01*
X007857Y005083D01*
X007869Y005155D01*
X007400Y005155D01*
X007400Y004686D01*
X007472Y004698D01*
X007550Y004723D01*
X007587Y004742D02*
X011150Y004742D01*
X011150Y004841D02*
X007721Y004841D01*
X007798Y004939D02*
X011150Y004939D01*
X011150Y005038D02*
X010574Y005038D01*
X010578Y005039D02*
X010662Y005088D01*
X010739Y005147D01*
X010808Y005216D01*
X010867Y005293D01*
X010916Y005377D01*
X010953Y005466D01*
X010978Y005560D01*
X010990Y005655D01*
X010300Y005655D01*
X010300Y005755D01*
X010200Y005755D01*
X010200Y006445D01*
X010105Y006433D01*
X010011Y006408D01*
X009922Y006371D01*
X009838Y006322D01*
X009761Y006263D01*
X009692Y006194D01*
X009633Y006117D01*
X009584Y006033D01*
X009547Y005944D01*
X009522Y005850D01*
X009510Y005755D01*
X010200Y005755D01*
X010200Y005655D01*
X009510Y005655D01*
X009522Y005560D01*
X009547Y005466D01*
X009584Y005377D01*
X009633Y005293D01*
X009692Y005216D01*
X009761Y005147D01*
X009838Y005088D01*
X009922Y005039D01*
X010011Y005002D01*
X010105Y004977D01*
X010200Y004965D01*
X010200Y005655D01*
X010300Y005655D01*
X010300Y004965D01*
X010395Y004977D01*
X010489Y005002D01*
X010578Y005039D01*
X010725Y005136D02*
X011150Y005136D01*
X011150Y005235D02*
X010822Y005235D01*
X010890Y005333D02*
X011150Y005333D01*
X011150Y005432D02*
X010938Y005432D01*
X010970Y005530D02*
X011150Y005530D01*
X011150Y005629D02*
X010987Y005629D01*
X011150Y005727D02*
X010300Y005727D01*
X010300Y005755D02*
X010990Y005755D01*
X010978Y005850D01*
X010953Y005944D01*
X010916Y006033D01*
X010867Y006117D01*
X010808Y006194D01*
X010739Y006263D01*
X010662Y006322D01*
X010578Y006371D01*
X010489Y006408D01*
X010395Y006433D01*
X010300Y006445D01*
X010300Y005755D01*
X010300Y005826D02*
X010200Y005826D01*
X010200Y005924D02*
X010300Y005924D01*
X010300Y006023D02*
X010200Y006023D01*
X010200Y006121D02*
X010300Y006121D01*
X010300Y006220D02*
X010200Y006220D01*
X010200Y006318D02*
X010300Y006318D01*
X010300Y006417D02*
X010200Y006417D01*
X010044Y006417D02*
X007830Y006417D01*
X007830Y006515D02*
X011150Y006515D01*
X011150Y006417D02*
X010456Y006417D01*
X010668Y006318D02*
X011150Y006318D01*
X011150Y006220D02*
X010783Y006220D01*
X010864Y006121D02*
X011150Y006121D01*
X011150Y006023D02*
X010920Y006023D01*
X010958Y005924D02*
X011150Y005924D01*
X011150Y005826D02*
X010981Y005826D01*
X010300Y005629D02*
X010200Y005629D01*
X010200Y005727D02*
X007768Y005727D01*
X007830Y005826D02*
X009519Y005826D01*
X009542Y005924D02*
X007830Y005924D01*
X007830Y006023D02*
X009580Y006023D01*
X009636Y006121D02*
X007830Y006121D01*
X007830Y006220D02*
X009717Y006220D01*
X009832Y006318D02*
X007830Y006318D01*
X007830Y006614D02*
X011150Y006614D01*
X010300Y005530D02*
X010200Y005530D01*
X010200Y005432D02*
X010300Y005432D01*
X010300Y005333D02*
X010200Y005333D01*
X010200Y005235D02*
X010300Y005235D01*
X010300Y005136D02*
X010200Y005136D01*
X010200Y005038D02*
X010300Y005038D01*
X009926Y005038D02*
X007842Y005038D01*
X007866Y005136D02*
X009775Y005136D01*
X009678Y005235D02*
X007400Y005235D01*
X007400Y005136D02*
X007300Y005136D01*
X007300Y005038D02*
X007400Y005038D01*
X007400Y004939D02*
X007300Y004939D01*
X007300Y004841D02*
X007400Y004841D01*
X007400Y004742D02*
X007300Y004742D01*
X007855Y005333D02*
X009610Y005333D01*
X009562Y005432D02*
X007818Y005432D01*
X007757Y005530D02*
X009530Y005530D01*
X009513Y005629D02*
X007652Y005629D01*
X006928Y002969D02*
X004911Y002969D01*
X005010Y002871D02*
X007006Y002871D01*
X007141Y002772D02*
X005108Y002772D01*
X003553Y000901D02*
X010794Y000901D01*
D15*
X006150Y003505D03*
X003050Y006105D03*
X002230Y004105D03*
X002160Y002755D03*
D16*
X004800Y002755D01*
X005650Y001905D01*
X002230Y004105D02*
X001880Y003755D01*
X001440Y003755D01*
X001440Y002515D01*
X002050Y001905D01*
M02*
