G75*
G70*
%OFA0B0*%
%FSLAX24Y24*%
%IPPOS*%
%LPD*%
%AMOC8*
5,1,8,0,0,1.08239X$1,22.5*
%
%ADD10C,0.0050*%
%ADD11C,0.0080*%
%ADD12C,0.0060*%
%ADD13C,0.0070*%
%ADD14C,0.0000*%
%ADD15C,0.0100*%
%ADD16C,0.0300*%
%ADD17R,0.0300X0.0110*%
%ADD18C,0.0030*%
%ADD19C,0.0059*%
D10*
X008095Y003088D02*
X008153Y003030D01*
X008270Y003030D01*
X008329Y003088D01*
X008329Y003264D01*
X008095Y003264D02*
X008095Y003088D01*
X008163Y004070D02*
X008280Y004070D01*
X008339Y004128D01*
X008339Y004304D01*
X008455Y004304D02*
X008105Y004304D01*
X008105Y004128D01*
X008163Y004070D01*
X008150Y005062D02*
X008150Y005295D01*
X008188Y005988D02*
X008188Y006222D01*
X008305Y006105D02*
X008071Y006105D01*
X005305Y006820D02*
X005305Y006995D01*
X005247Y007054D01*
X005130Y007054D01*
X005072Y006995D01*
X005072Y006820D01*
X005072Y006937D02*
X004955Y007054D01*
X004955Y006820D02*
X005305Y006820D01*
X004555Y006888D02*
X004497Y006830D01*
X004263Y006830D01*
X004205Y006888D01*
X004205Y007005D01*
X004263Y007064D01*
X004380Y007064D01*
X004380Y006947D01*
X004497Y007064D02*
X004555Y007005D01*
X004555Y006888D01*
X003025Y006850D02*
X003025Y007025D01*
X002967Y007084D01*
X002909Y007084D01*
X002850Y007025D01*
X002850Y006850D01*
X002675Y006850D02*
X002675Y007025D01*
X002733Y007084D01*
X002792Y007084D01*
X002850Y007025D01*
X002675Y006850D02*
X003025Y006850D01*
X008590Y009285D02*
X011910Y009285D01*
X011910Y000125D01*
X008590Y000125D01*
X008590Y009285D01*
D11*
X005150Y007305D02*
X005150Y007205D01*
X005150Y007305D02*
X004950Y007505D01*
X004350Y007305D02*
X004350Y007205D01*
X004350Y007305D02*
X004050Y007605D01*
X002850Y007405D02*
X002850Y007205D01*
D12*
X002700Y006405D02*
X001400Y006405D01*
X001377Y006403D01*
X001354Y006398D01*
X001332Y006389D01*
X001312Y006376D01*
X001294Y006361D01*
X001279Y006343D01*
X001266Y006323D01*
X001257Y006301D01*
X001252Y006278D01*
X001250Y006255D01*
X001250Y006005D01*
X001300Y005955D01*
X001300Y002855D01*
X001250Y002805D01*
X001250Y002555D01*
X001252Y002532D01*
X001257Y002509D01*
X001266Y002487D01*
X001279Y002467D01*
X001294Y002449D01*
X001312Y002434D01*
X001332Y002421D01*
X001354Y002412D01*
X001377Y002407D01*
X001400Y002405D01*
X002700Y002405D01*
X002723Y002407D01*
X002746Y002412D01*
X002768Y002421D01*
X002788Y002434D01*
X002806Y002449D01*
X002821Y002467D01*
X002834Y002487D01*
X002843Y002509D01*
X002848Y002532D01*
X002850Y002555D01*
X002850Y002805D01*
X002800Y002855D01*
X002800Y005955D01*
X002850Y006005D01*
X002850Y006255D01*
X002848Y006278D01*
X002843Y006301D01*
X002834Y006323D01*
X002821Y006343D01*
X002806Y006361D01*
X002788Y006376D01*
X002768Y006389D01*
X002746Y006398D01*
X002723Y006403D01*
X002700Y006405D01*
X003050Y006255D02*
X003050Y006005D01*
X003100Y005955D01*
X003100Y002855D01*
X003050Y002805D01*
X003050Y002555D01*
X003052Y002532D01*
X003057Y002509D01*
X003066Y002487D01*
X003079Y002467D01*
X003094Y002449D01*
X003112Y002434D01*
X003132Y002421D01*
X003154Y002412D01*
X003177Y002407D01*
X003200Y002405D01*
X004500Y002405D01*
X004523Y002407D01*
X004546Y002412D01*
X004568Y002421D01*
X004588Y002434D01*
X004606Y002449D01*
X004621Y002467D01*
X004634Y002487D01*
X004643Y002509D01*
X004648Y002532D01*
X004650Y002555D01*
X004650Y002805D01*
X004600Y002855D01*
X004600Y005955D01*
X004650Y006005D01*
X004650Y006255D01*
X004648Y006278D01*
X004643Y006301D01*
X004634Y006323D01*
X004621Y006343D01*
X004606Y006361D01*
X004588Y006376D01*
X004568Y006389D01*
X004546Y006398D01*
X004523Y006403D01*
X004500Y006405D01*
X003200Y006405D01*
X003177Y006403D01*
X003154Y006398D01*
X003132Y006389D01*
X003112Y006376D01*
X003094Y006361D01*
X003079Y006343D01*
X003066Y006323D01*
X003057Y006301D01*
X003052Y006278D01*
X003050Y006255D01*
X004850Y006255D02*
X004850Y006005D01*
X004900Y005955D01*
X004900Y002855D01*
X004850Y002805D01*
X004850Y002555D01*
X004852Y002532D01*
X004857Y002509D01*
X004866Y002487D01*
X004879Y002467D01*
X004894Y002449D01*
X004912Y002434D01*
X004932Y002421D01*
X004954Y002412D01*
X004977Y002407D01*
X005000Y002405D01*
X006300Y002405D01*
X006323Y002407D01*
X006346Y002412D01*
X006368Y002421D01*
X006388Y002434D01*
X006406Y002449D01*
X006421Y002467D01*
X006434Y002487D01*
X006443Y002509D01*
X006448Y002532D01*
X006450Y002555D01*
X006450Y002805D01*
X006400Y002855D01*
X006400Y005955D01*
X006450Y006005D01*
X006450Y006255D01*
X006448Y006278D01*
X006443Y006301D01*
X006434Y006323D01*
X006421Y006343D01*
X006406Y006361D01*
X006388Y006376D01*
X006368Y006389D01*
X006346Y006398D01*
X006323Y006403D01*
X006300Y006405D01*
X005000Y006405D01*
X004977Y006403D01*
X004954Y006398D01*
X004932Y006389D01*
X004912Y006376D01*
X004894Y006361D01*
X004879Y006343D01*
X004866Y006323D01*
X004857Y006301D01*
X004852Y006278D01*
X004850Y006255D01*
X006623Y007608D02*
X006623Y007902D01*
X006770Y007755D02*
X006476Y007755D01*
D13*
X005760Y006192D02*
X005540Y006192D01*
X005485Y006137D01*
X005485Y005972D01*
X005815Y005972D01*
X005815Y006137D01*
X005760Y006192D01*
X005815Y005824D02*
X005815Y005603D01*
X005485Y005603D01*
X005485Y005824D01*
X005650Y005713D02*
X005650Y005603D01*
X005650Y005455D02*
X005595Y005400D01*
X005595Y005235D01*
X005485Y005235D02*
X005815Y005235D01*
X005815Y005400D01*
X005760Y005455D01*
X005650Y005455D01*
X005595Y005345D02*
X005485Y005455D01*
X004015Y005455D02*
X004015Y005235D01*
X003685Y005235D01*
X003685Y005455D01*
X003685Y005603D02*
X003685Y005824D01*
X003850Y005713D02*
X003850Y005603D01*
X004015Y005603D02*
X003685Y005603D01*
X003850Y005345D02*
X003850Y005235D01*
X003850Y005087D02*
X003795Y005032D01*
X003795Y004867D01*
X003685Y004867D02*
X004015Y004867D01*
X004015Y005032D01*
X003960Y005087D01*
X003850Y005087D01*
X003795Y004977D02*
X003685Y005087D01*
X003740Y004719D02*
X003850Y004719D01*
X003850Y004609D01*
X003740Y004719D02*
X003685Y004664D01*
X003685Y004553D01*
X003740Y004498D01*
X003960Y004498D01*
X004015Y004553D01*
X004015Y004664D01*
X003960Y004719D01*
X004015Y005603D02*
X004015Y005824D01*
X004015Y005972D02*
X003685Y006192D01*
X004015Y006192D01*
X004015Y005972D02*
X003685Y005972D01*
X002215Y005972D02*
X001885Y005972D01*
X001885Y006192D01*
X002050Y006082D02*
X002050Y005972D01*
X002215Y005972D02*
X002215Y006192D01*
X002215Y005824D02*
X001940Y005824D01*
X001885Y005769D01*
X001885Y005658D01*
X001940Y005603D01*
X002215Y005603D01*
X001885Y005455D02*
X001885Y005235D01*
X002215Y005235D01*
X002160Y005087D02*
X002105Y005087D01*
X002050Y005032D01*
X002050Y004867D01*
X001885Y004867D02*
X002215Y004867D01*
X002215Y005032D01*
X002160Y005087D01*
X002050Y005032D02*
X001995Y005087D01*
X001940Y005087D01*
X001885Y005032D01*
X001885Y004867D01*
X004411Y001260D02*
X004411Y000880D01*
X004348Y000880D02*
X004475Y000880D01*
X004635Y001007D02*
X004889Y001007D01*
X004889Y001070D02*
X004889Y000943D01*
X004825Y000880D01*
X004699Y000880D01*
X004635Y001007D02*
X004635Y001070D01*
X004699Y001134D01*
X004825Y001134D01*
X004889Y001070D01*
X005050Y001134D02*
X005303Y000880D01*
X005453Y000880D02*
X005579Y000880D01*
X005516Y000880D02*
X005516Y001134D01*
X005579Y001134D01*
X005740Y001197D02*
X005740Y001070D01*
X005804Y001007D01*
X005994Y001007D01*
X005994Y000880D02*
X005994Y001260D01*
X005804Y001260D01*
X005740Y001197D01*
X005516Y001260D02*
X005516Y001324D01*
X005303Y001134D02*
X005050Y000880D01*
X004475Y001260D02*
X004411Y001260D01*
X006155Y001134D02*
X006155Y000817D01*
X006218Y000753D01*
X006281Y000753D01*
X006345Y000880D02*
X006155Y000880D01*
X006345Y000880D02*
X006408Y000943D01*
X006408Y001134D01*
X006569Y001070D02*
X006569Y000880D01*
X006569Y001070D02*
X006632Y001134D01*
X006823Y001134D01*
X006823Y000880D01*
X006972Y000880D02*
X007099Y000880D01*
X007035Y000880D02*
X007035Y001134D01*
X007099Y001134D01*
X007035Y001260D02*
X007035Y001324D01*
X007248Y001134D02*
X007375Y001134D01*
X007312Y001197D02*
X007312Y000943D01*
X007248Y000880D01*
D14*
X004350Y000605D02*
X010450Y000605D01*
X010509Y000607D01*
X010567Y000613D01*
X010626Y000622D01*
X010683Y000636D01*
X010739Y000653D01*
X010794Y000674D01*
X010848Y000698D01*
X010900Y000726D01*
X010950Y000757D01*
X010998Y000791D01*
X011043Y000828D01*
X011086Y000869D01*
X011127Y000912D01*
X011164Y000957D01*
X011198Y001005D01*
X011229Y001055D01*
X011257Y001107D01*
X011281Y001161D01*
X011302Y001216D01*
X011319Y001272D01*
X011333Y001329D01*
X011342Y001388D01*
X011348Y001446D01*
X011350Y001505D01*
X011350Y007905D01*
X011355Y007960D01*
X011356Y008015D01*
X011353Y008070D01*
X011347Y008125D01*
X011337Y008179D01*
X011323Y008232D01*
X011306Y008284D01*
X011285Y008335D01*
X011261Y008385D01*
X011233Y008432D01*
X011203Y008478D01*
X011169Y008521D01*
X011132Y008562D01*
X011093Y008601D01*
X011051Y008636D01*
X011007Y008669D01*
X010960Y008699D01*
X010912Y008725D01*
X010862Y008748D01*
X010811Y008768D01*
X010758Y008784D01*
X010704Y008796D01*
X010650Y008805D01*
X004350Y008805D01*
X000250Y004705D02*
X000255Y004504D01*
X000270Y004303D01*
X000294Y004103D01*
X000329Y003905D01*
X000373Y003709D01*
X000427Y003515D01*
X000490Y003324D01*
X000562Y003136D01*
X000644Y002952D01*
X000734Y002772D01*
X000833Y002597D01*
X000941Y002427D01*
X001057Y002263D01*
X001181Y002104D01*
X001312Y001952D01*
X001451Y001806D01*
X001597Y001667D01*
X001749Y001536D01*
X001908Y001412D01*
X002072Y001296D01*
X002242Y001188D01*
X002417Y001089D01*
X002597Y000999D01*
X002781Y000917D01*
X002969Y000845D01*
X003160Y000782D01*
X003354Y000728D01*
X003550Y000684D01*
X003748Y000649D01*
X003948Y000625D01*
X004149Y000610D01*
X004350Y000605D01*
X000250Y004705D02*
X000255Y004906D01*
X000270Y005107D01*
X000294Y005307D01*
X000329Y005505D01*
X000373Y005701D01*
X000427Y005895D01*
X000490Y006086D01*
X000562Y006274D01*
X000644Y006458D01*
X000734Y006638D01*
X000833Y006813D01*
X000941Y006983D01*
X001057Y007147D01*
X001181Y007306D01*
X001312Y007458D01*
X001451Y007604D01*
X001597Y007743D01*
X001749Y007874D01*
X001908Y007998D01*
X002072Y008114D01*
X002242Y008222D01*
X002417Y008321D01*
X002597Y008411D01*
X002781Y008493D01*
X002969Y008565D01*
X003160Y008628D01*
X003354Y008682D01*
X003550Y008726D01*
X003748Y008761D01*
X003948Y008785D01*
X004149Y008800D01*
X004350Y008805D01*
D15*
X008650Y007605D02*
X010450Y009405D01*
X008650Y002105D02*
X010550Y000205D01*
D16*
X002050Y001905D02*
X002050Y002255D01*
X003850Y002255D02*
X003850Y001905D01*
X005650Y001905D02*
X005650Y002255D01*
X005650Y006555D02*
X005650Y006905D01*
X003850Y006905D02*
X003850Y006555D01*
X002050Y006555D02*
X002050Y006905D01*
D17*
X002050Y006460D03*
X003850Y006460D03*
X005650Y006460D03*
X005650Y002350D03*
X003850Y002350D03*
X002050Y002350D03*
D18*
X001957Y002610D02*
X002005Y002658D01*
X002005Y002755D01*
X001957Y002803D01*
X001908Y002803D01*
X001860Y002755D01*
X001812Y002803D01*
X001763Y002803D01*
X001715Y002755D01*
X001715Y002658D01*
X001763Y002610D01*
X001860Y002707D02*
X001860Y002755D01*
X001763Y002905D02*
X001763Y002953D01*
X001715Y002953D01*
X001715Y002905D01*
X001763Y002905D01*
X001763Y003052D02*
X001715Y003100D01*
X001715Y003197D01*
X001763Y003245D01*
X001957Y003245D01*
X002005Y003197D01*
X002005Y003100D01*
X001957Y003052D01*
X001908Y003052D01*
X001860Y003100D01*
X001860Y003245D01*
X001860Y003347D02*
X001763Y003347D01*
X001715Y003395D01*
X001715Y003492D01*
X001763Y003540D01*
X001860Y003540D01*
X001908Y003492D01*
X001908Y003395D01*
X001860Y003347D01*
X001860Y003641D02*
X001908Y003690D01*
X001908Y003786D01*
X001860Y003835D01*
X001715Y003835D01*
X001715Y003936D02*
X001908Y003936D01*
X001908Y003984D01*
X001860Y004033D01*
X001908Y004081D01*
X001860Y004129D01*
X001715Y004129D01*
X001715Y004033D02*
X001860Y004033D01*
X002005Y003641D02*
X001715Y003641D01*
X002163Y003108D02*
X002115Y003060D01*
X002115Y002963D01*
X002163Y002915D01*
X002115Y002813D02*
X002212Y002717D01*
X002212Y002765D02*
X002212Y002620D01*
X002115Y002620D02*
X002405Y002620D01*
X002405Y002765D01*
X002357Y002813D01*
X002260Y002813D01*
X002212Y002765D01*
X002357Y002915D02*
X002405Y002963D01*
X002405Y003060D01*
X002357Y003108D01*
X002308Y003108D01*
X002260Y003060D01*
X002212Y003108D01*
X002163Y003108D01*
X002260Y003060D02*
X002260Y003011D01*
X003515Y002953D02*
X003515Y002905D01*
X003563Y002905D01*
X003563Y002953D01*
X003515Y002953D01*
X003563Y003052D02*
X003515Y003100D01*
X003515Y003197D01*
X003563Y003245D01*
X003757Y003245D01*
X003805Y003197D01*
X003805Y003100D01*
X003757Y003052D01*
X003708Y003052D01*
X003660Y003100D01*
X003660Y003245D01*
X003660Y003347D02*
X003563Y003347D01*
X003515Y003395D01*
X003515Y003492D01*
X003563Y003540D01*
X003660Y003540D01*
X003708Y003492D01*
X003708Y003395D01*
X003660Y003347D01*
X003660Y003641D02*
X003708Y003690D01*
X003708Y003786D01*
X003660Y003835D01*
X003515Y003835D01*
X003515Y003936D02*
X003708Y003936D01*
X003708Y003984D01*
X003660Y004033D01*
X003708Y004081D01*
X003660Y004129D01*
X003515Y004129D01*
X003515Y004033D02*
X003660Y004033D01*
X003805Y003641D02*
X003515Y003641D01*
X003915Y003108D02*
X003915Y002915D01*
X004108Y003108D01*
X004157Y003108D01*
X004205Y003060D01*
X004205Y002963D01*
X004157Y002915D01*
X004157Y002813D02*
X004060Y002813D01*
X004012Y002765D01*
X004012Y002620D01*
X004012Y002717D02*
X003915Y002813D01*
X003805Y002755D02*
X003757Y002803D01*
X003708Y002803D01*
X003660Y002755D01*
X003612Y002803D01*
X003563Y002803D01*
X003515Y002755D01*
X003515Y002658D01*
X003563Y002610D01*
X003660Y002707D02*
X003660Y002755D01*
X003805Y002755D02*
X003805Y002658D01*
X003757Y002610D01*
X003915Y002620D02*
X004205Y002620D01*
X004205Y002765D01*
X004157Y002813D01*
X005315Y002755D02*
X005315Y002658D01*
X005363Y002610D01*
X005460Y002610D01*
X005460Y002755D01*
X005412Y002803D01*
X005363Y002803D01*
X005315Y002755D01*
X005460Y002610D02*
X005557Y002707D01*
X005605Y002803D01*
X005715Y002813D02*
X005812Y002717D01*
X005812Y002765D02*
X005812Y002620D01*
X005715Y002620D02*
X006005Y002620D01*
X006005Y002765D01*
X005957Y002813D01*
X005860Y002813D01*
X005812Y002765D01*
X005908Y002915D02*
X006005Y003011D01*
X005715Y003011D01*
X005715Y002915D02*
X005715Y003108D01*
X005605Y003100D02*
X005557Y003052D01*
X005508Y003052D01*
X005460Y003100D01*
X005460Y003197D01*
X005412Y003245D01*
X005363Y003245D01*
X005315Y003197D01*
X005315Y003100D01*
X005363Y003052D01*
X005412Y003052D01*
X005460Y003100D01*
X005460Y003197D02*
X005508Y003245D01*
X005557Y003245D01*
X005605Y003197D01*
X005605Y003100D01*
X005363Y002953D02*
X005315Y002953D01*
X005315Y002905D01*
X005363Y002905D01*
X005363Y002953D01*
X005363Y003347D02*
X005315Y003395D01*
X005315Y003492D01*
X005363Y003540D01*
X005460Y003540D01*
X005508Y003492D01*
X005508Y003395D01*
X005460Y003347D01*
X005363Y003347D01*
X005315Y003641D02*
X005605Y003641D01*
X005508Y003690D02*
X005508Y003786D01*
X005460Y003835D01*
X005315Y003835D01*
X005315Y003936D02*
X005508Y003936D01*
X005508Y003984D01*
X005460Y004033D01*
X005508Y004081D01*
X005460Y004129D01*
X005315Y004129D01*
X005315Y004033D02*
X005460Y004033D01*
X005508Y003690D02*
X005460Y003641D01*
D19*
X001415Y004341D02*
X001314Y004240D01*
X001165Y004361D01*
X001105Y004330D01*
X001041Y004309D01*
X001022Y004119D01*
X000878Y004119D01*
X000859Y004309D01*
X000795Y004330D01*
X000735Y004361D01*
X000586Y004240D01*
X000485Y004341D01*
X000606Y004490D01*
X000575Y004550D01*
X000554Y004614D01*
X000364Y004633D01*
X000364Y004777D01*
X000554Y004796D01*
X000575Y004860D01*
X000606Y004920D01*
X000485Y005069D01*
X000586Y005170D01*
X000735Y005049D01*
X000795Y005080D01*
X000859Y005101D01*
X000878Y005291D01*
X001022Y005291D01*
X001041Y005101D01*
X001105Y005080D01*
X001165Y005049D01*
X001314Y005170D01*
X001415Y005069D01*
X001294Y004920D01*
X001325Y004860D01*
X001121Y004776D01*
X001099Y004813D01*
X001070Y004845D01*
X001034Y004869D01*
X000993Y004884D01*
X000950Y004890D01*
X000906Y004884D01*
X000865Y004869D01*
X000828Y004844D01*
X000799Y004811D01*
X000778Y004772D01*
X000767Y004729D01*
X000767Y004685D01*
X000777Y004642D01*
X000797Y004603D01*
X000825Y004569D01*
X000861Y004543D01*
X000902Y004527D01*
X000946Y004521D01*
X000990Y004525D01*
X001032Y004540D01*
X001069Y004564D01*
X001099Y004596D01*
X001121Y004634D01*
X001325Y004550D01*
X001294Y004490D01*
X001415Y004341D01*
X001412Y004346D02*
X001183Y004346D01*
X001137Y004346D02*
X000763Y004346D01*
X000717Y004346D02*
X000488Y004346D01*
X000535Y004404D02*
X001365Y004404D01*
X001318Y004461D02*
X000582Y004461D01*
X000591Y004519D02*
X001309Y004519D01*
X001261Y004576D02*
X001081Y004576D01*
X001120Y004634D02*
X001122Y004634D01*
X001103Y004807D02*
X001195Y004807D01*
X001323Y004864D02*
X001042Y004864D01*
X000858Y004864D02*
X000577Y004864D01*
X000558Y004807D02*
X000797Y004807D01*
X000772Y004749D02*
X000364Y004749D01*
X000364Y004691D02*
X000767Y004691D01*
X000781Y004634D02*
X000364Y004634D01*
X000566Y004576D02*
X000819Y004576D01*
X000861Y004289D02*
X001039Y004289D01*
X001033Y004231D02*
X000867Y004231D01*
X000872Y004173D02*
X001028Y004173D01*
X001254Y004289D02*
X001362Y004289D01*
X000646Y004289D02*
X000538Y004289D01*
X000604Y004922D02*
X001296Y004922D01*
X001342Y004979D02*
X000558Y004979D01*
X000511Y005037D02*
X001389Y005037D01*
X001390Y005094D02*
X001220Y005094D01*
X001291Y005152D02*
X001332Y005152D01*
X001061Y005094D02*
X000839Y005094D01*
X000864Y005152D02*
X001036Y005152D01*
X001030Y005209D02*
X000870Y005209D01*
X000876Y005267D02*
X001024Y005267D01*
X000680Y005094D02*
X000510Y005094D01*
X000568Y005152D02*
X000609Y005152D01*
M02*
