G75*
G70*
%OFA0B0*%
%FSLAX24Y24*%
%IPPOS*%
%LPD*%
%AMOC8*
5,1,8,0,0,1.08239X$1,22.5*
%
%ADD10R,0.0880X0.0340*%
%ADD11R,0.0320X0.0950*%
%ADD12R,0.0395X0.0552*%
%ADD13OC8,0.0620*%
%ADD14C,0.0820*%
%ADD15C,0.0215*%
%ADD16C,0.1261*%
%ADD17R,0.0820X0.0820*%
%ADD18C,0.0456*%
D10*
X001440Y002755D03*
X001440Y003255D03*
X001440Y003755D03*
X001440Y004255D03*
X001440Y004755D03*
X001440Y005255D03*
X001440Y005755D03*
X001440Y006255D03*
X003860Y006255D03*
X003860Y005755D03*
X003860Y005255D03*
X003860Y004755D03*
X003860Y004255D03*
X003860Y003755D03*
X003860Y003255D03*
X003860Y002755D03*
D11*
X004700Y002775D03*
X005200Y002775D03*
X005700Y002775D03*
X006200Y002775D03*
X006200Y005425D03*
X005700Y005425D03*
X005200Y005425D03*
X004700Y005425D03*
D12*
X007296Y007305D03*
X008004Y007305D03*
D13*
X002050Y001905D03*
X003850Y001905D03*
X005650Y001905D03*
X005650Y006905D03*
X003850Y006905D03*
X002050Y006905D03*
D14*
X002850Y007805D03*
X003850Y007805D03*
X004850Y007805D03*
X005850Y007805D03*
X007350Y005205D03*
X007350Y004205D03*
X007350Y003205D03*
D15*
X006983Y001248D02*
X006117Y001248D01*
X006983Y001248D02*
X006983Y000882D01*
X006117Y000882D01*
X006117Y001248D01*
X006117Y001096D02*
X006983Y001096D01*
X005183Y000862D02*
X004317Y000862D01*
X004317Y001228D01*
X005183Y001228D01*
X005183Y000862D01*
X005183Y001076D02*
X004317Y001076D01*
D16*
X010250Y001705D03*
X010250Y003705D03*
X010250Y005705D03*
X010250Y007705D03*
D17*
X007350Y006205D03*
D18*
X006150Y003505D03*
X003050Y006105D03*
X002230Y004105D03*
X002160Y002755D03*
M02*
