%
M48
M72
T01C0.0236
T02C0.0360
T03C0.0400
T04C0.0787
%
T01
X2160Y2755
X2230Y4105
X3050Y6105
X6150Y3505
T02
X2050Y1905
X3850Y1905
X5650Y1905
X5650Y6905
X3850Y6905
X2050Y6905
T03
X2850Y7805
X3850Y7805
X4850Y7805
X5850Y7805
X7350Y6205
X7350Y5205
X7350Y4205
X7350Y3205
T04
X10250Y3705
X10250Y1705
X10250Y5705
X10250Y7705
M30
